<svg xmlns="http://www.w3.org/2000/svg" viewBox="0 0 64 64">
  <rect width="64" height="64" rx="20" fill="#5C74F6" />
  
  <!-- 全体を均等に中央に寄せて余白を確保 -->
  <g transform="translate(6, 6) scale(0.8)">
    <path d="M32 12 C 32 24, 24 32, 12 32 C 24 32, 32 40, 32 52 C 32 40, 40 32, 52 32 C 40 32, 32 24, 32 12 Z"
          fill="none"
          stroke="#FFFFFF"
          stroke-width="4"
          stroke-linejoin="round"
          stroke-linecap="round" />

    <path d="M16 40 C 16 44, 14 46, 10 46 C 14 46, 16 48, 16 52 C 16 48, 18 46, 22 46 C 18 46, 16 44, 16 40 Z"
          fill="none"
          stroke="#FFFFFF"
          stroke-width="2.5"
          stroke-linejoin="round"
          stroke-linecap="round" />

    <g fill="#FFFFFF">
      <rect x="47" y="11" width="4" height="10" rx="2" />
      <rect x="44" y="14" width="10" height="4" rx="2" />
    </g>
  </g>
</svg>
